<svg width="80" height="18" viewBox="0 0 80 18" fill="none" xmlns="http://www.w3.org/2000/svg">
<path d="M6.09503 0H2.28635C1.02363 0 0 1.02363 0 2.28635V6.57681H1.80741V2.28635C1.80741 2.02184 2.02184 1.80741 2.28635 1.80741H6.09503V0Z" fill="#0889FE"/>
<path d="M11.6997 1.80741V0H15.7137C16.9764 0 18 1.02363 18 2.28635V6.57681H16.1926V2.28635C16.1926 2.02184 15.9782 1.80741 15.7137 1.80741H11.6997Z" fill="#0889FE"/>
<path d="M11.6997 16.1926H15.7137C15.9782 16.1926 16.1926 15.9782 16.1926 15.7137V12.1815H18V15.7137C18 16.9764 16.9764 18 15.7137 18H11.6997V16.1926Z" fill="#0889FE"/>
<path d="M1.80741 12.1815V15.7137C1.80741 15.9782 2.02184 16.1926 2.28635 16.1926H6.09503V18H2.28635C1.02363 18 0 16.9764 0 15.7137V12.1815H1.80741Z" fill="#0889FE"/>
<path d="M46.6705 9.618H43.8425V12.516H42.3585V9.618H39.5305V8.274H42.3585V5.376H43.8425V8.274H46.6705V9.618ZM48.7267 5.25V3.794H51.6387V14H50.0287V5.25H48.7267ZM53.8312 8.764C53.8312 7.14933 54.1019 5.88933 54.6432 4.984C55.1939 4.06933 56.1365 3.612 57.4712 3.612C58.8059 3.612 59.7439 4.06933 60.2852 4.984C60.8359 5.88933 61.1112 7.14933 61.1112 8.764C61.1112 10.3973 60.8359 11.676 60.2852 12.6C59.7439 13.5147 58.8059 13.972 57.4712 13.972C56.1365 13.972 55.1939 13.5147 54.6432 12.6C54.1019 11.676 53.8312 10.3973 53.8312 8.764ZM59.5432 8.764C59.5432 8.008 59.4919 7.36867 59.3892 6.846C59.2959 6.32333 59.0999 5.89867 58.8012 5.572C58.5025 5.236 58.0592 5.068 57.4712 5.068C56.8832 5.068 56.4399 5.236 56.1412 5.572C55.8425 5.89867 55.6419 6.32333 55.5392 6.846C55.4459 7.36867 55.3992 8.008 55.3992 8.764C55.3992 9.548 55.4459 10.206 55.5392 10.738C55.6325 11.27 55.8285 11.6993 56.1272 12.026C56.4352 12.3527 56.8832 12.516 57.4712 12.516C58.0592 12.516 58.5025 12.3527 58.8012 12.026C59.1092 11.6993 59.3099 11.27 59.4032 10.738C59.4965 10.206 59.5432 9.548 59.5432 8.764ZM62.8 8.764C62.8 7.14933 63.0706 5.88933 63.612 4.984C64.1626 4.06933 65.1053 3.612 66.44 3.612C67.7746 3.612 68.7126 4.06933 69.254 4.984C69.8046 5.88933 70.08 7.14933 70.08 8.764C70.08 10.3973 69.8046 11.676 69.254 12.6C68.7126 13.5147 67.7746 13.972 66.44 13.972C65.1053 13.972 64.1626 13.5147 63.612 12.6C63.0706 11.676 62.8 10.3973 62.8 8.764ZM68.512 8.764C68.512 8.008 68.4606 7.36867 68.358 6.846C68.2646 6.32333 68.0686 5.89867 67.77 5.572C67.4713 5.236 67.028 5.068 66.44 5.068C65.852 5.068 65.4086 5.236 65.11 5.572C64.8113 5.89867 64.6106 6.32333 64.508 6.846C64.4146 7.36867 64.368 8.008 64.368 8.764C64.368 9.548 64.4146 10.206 64.508 10.738C64.6013 11.27 64.7973 11.6993 65.096 12.026C65.404 12.3527 65.852 12.516 66.44 12.516C67.028 12.516 67.4713 12.3527 67.77 12.026C68.078 11.6993 68.2786 11.27 68.372 10.738C68.4653 10.206 68.512 9.548 68.512 8.764ZM71.7687 8.764C71.7687 7.14933 72.0394 5.88933 72.5807 4.984C73.1314 4.06933 74.074 3.612 75.4087 3.612C76.7434 3.612 77.6814 4.06933 78.2227 4.984C78.7734 5.88933 79.0487 7.14933 79.0487 8.764C79.0487 10.3973 78.7734 11.676 78.2227 12.6C77.6814 13.5147 76.7434 13.972 75.4087 13.972C74.074 13.972 73.1314 13.5147 72.5807 12.6C72.0394 11.676 71.7687 10.3973 71.7687 8.764ZM77.4807 8.764C77.4807 8.008 77.4294 7.36867 77.3267 6.846C77.2334 6.32333 77.0374 5.89867 76.7387 5.572C76.44 5.236 75.9967 5.068 75.4087 5.068C74.8207 5.068 74.3774 5.236 74.0787 5.572C73.78 5.89867 73.5794 6.32333 73.4767 6.846C73.3834 7.36867 73.3367 8.008 73.3367 8.764C73.3367 9.548 73.3834 10.206 73.4767 10.738C73.57 11.27 73.766 11.6993 74.0647 12.026C74.3727 12.3527 74.8207 12.516 75.4087 12.516C75.9967 12.516 76.44 12.3527 76.7387 12.026C77.0467 11.6993 77.2474 11.27 77.3407 10.738C77.434 10.206 77.4807 9.548 77.4807 8.764Z" fill="#444444"/>
</svg>
